<mxfile host="app.diagrams.net" modified="2022-12-08T09:40:20.361Z" agent="5.0 (Windows NT 10.0; Win64; x64) AppleWebKit/537.36 (KHTML, like Gecko) Chrome/108.0.0.0 Safari/537.36 Edg/108.0.1462.42" etag="5WMK5Hl4Ttr7Ga1ylmIt" version="20.4.0" type="github">
  <diagram id="knNVVpSUdtBvvUgc0vyd" name="Page-1">
    <mxGraphModel dx="1278" dy="579" grid="1" gridSize="10" guides="1" tooltips="1" connect="1" arrows="1" fold="1" page="1" pageScale="1" pageWidth="850" pageHeight="1100" math="0" shadow="0">
      <root>
        <mxCell id="0" />
        <mxCell id="1" parent="0" />
        <mxCell id="jnAsqeYWJaMCT1S7_PGn-1" value="&lt;h1&gt;&lt;font color=&quot;#ffffff&quot;&gt;Tracker Subsystem&lt;/font&gt;&lt;/h1&gt;" style="rounded=1;whiteSpace=wrap;html=1;hachureGap=4;fillColor=#000099;strokeColor=#36393d;" vertex="1" parent="1">
          <mxGeometry x="190" y="230" width="210" height="200" as="geometry" />
        </mxCell>
        <mxCell id="jnAsqeYWJaMCT1S7_PGn-2" style="edgeStyle=none;rounded=0;orthogonalLoop=1;jettySize=auto;html=1;exitX=0;exitY=0.5;exitDx=0;exitDy=0;fontFamily=Helvetica;fontColor=#FFFFFF;" edge="1" parent="1" source="jnAsqeYWJaMCT1S7_PGn-3" target="jnAsqeYWJaMCT1S7_PGn-1">
          <mxGeometry relative="1" as="geometry" />
        </mxCell>
        <mxCell id="jnAsqeYWJaMCT1S7_PGn-3" value="&lt;h1&gt;&lt;font color=&quot;#ffffff&quot;&gt;Positioner Subsystem&lt;/font&gt;&lt;/h1&gt;" style="rounded=1;whiteSpace=wrap;html=1;hachureGap=4;fillColor=#000099;strokeColor=#36393d;" vertex="1" parent="1">
          <mxGeometry x="460" width="190" height="210" as="geometry" />
        </mxCell>
        <mxCell id="jnAsqeYWJaMCT1S7_PGn-4" style="edgeStyle=none;rounded=0;orthogonalLoop=1;jettySize=auto;html=1;exitX=0;exitY=0.25;exitDx=0;exitDy=0;entryX=1;entryY=0.25;entryDx=0;entryDy=0;fontFamily=Helvetica;fontColor=#FFFFFF;" edge="1" parent="1" source="jnAsqeYWJaMCT1S7_PGn-6" target="jnAsqeYWJaMCT1S7_PGn-9">
          <mxGeometry relative="1" as="geometry" />
        </mxCell>
        <mxCell id="jnAsqeYWJaMCT1S7_PGn-5" style="edgeStyle=none;rounded=0;orthogonalLoop=1;jettySize=auto;html=1;exitX=0.25;exitY=0;exitDx=0;exitDy=0;entryX=1;entryY=0.5;entryDx=0;entryDy=0;fontFamily=Helvetica;fontColor=#FFFFFF;" edge="1" parent="1" source="jnAsqeYWJaMCT1S7_PGn-6" target="jnAsqeYWJaMCT1S7_PGn-3">
          <mxGeometry relative="1" as="geometry" />
        </mxCell>
        <mxCell id="jnAsqeYWJaMCT1S7_PGn-6" value="&lt;h1&gt;&lt;font color=&quot;#ffffff&quot;&gt;Display Subsystem&lt;/font&gt;&lt;/h1&gt;" style="rounded=1;whiteSpace=wrap;html=1;hachureGap=4;fillColor=#000099;strokeColor=#36393d;" vertex="1" parent="1">
          <mxGeometry x="690" y="280" width="214" height="200" as="geometry" />
        </mxCell>
        <mxCell id="jnAsqeYWJaMCT1S7_PGn-7" style="edgeStyle=none;rounded=0;orthogonalLoop=1;jettySize=auto;html=1;exitX=1;exitY=0.75;exitDx=0;exitDy=0;entryX=0;entryY=0.75;entryDx=0;entryDy=0;fontFamily=Helvetica;fontColor=#FFFFFF;" edge="1" parent="1" source="jnAsqeYWJaMCT1S7_PGn-9" target="jnAsqeYWJaMCT1S7_PGn-6">
          <mxGeometry relative="1" as="geometry" />
        </mxCell>
        <mxCell id="jnAsqeYWJaMCT1S7_PGn-8" style="edgeStyle=none;rounded=0;orthogonalLoop=1;jettySize=auto;html=1;exitX=0;exitY=0.5;exitDx=0;exitDy=0;entryX=1;entryY=0.75;entryDx=0;entryDy=0;fontFamily=Helvetica;fontColor=#FFFFFF;" edge="1" parent="1" source="jnAsqeYWJaMCT1S7_PGn-9" target="jnAsqeYWJaMCT1S7_PGn-1">
          <mxGeometry relative="1" as="geometry" />
        </mxCell>
        <mxCell id="jnAsqeYWJaMCT1S7_PGn-9" value="&lt;h1&gt;&lt;font color=&quot;#ffffff&quot;&gt;Data Collection&lt;/font&gt;&lt;/h1&gt;" style="rounded=1;whiteSpace=wrap;html=1;fillColor=#000099;" vertex="1" parent="1">
          <mxGeometry x="450" y="280" width="210" height="200" as="geometry" />
        </mxCell>
        <mxCell id="jnAsqeYWJaMCT1S7_PGn-10" value="" style="endArrow=classic;html=1;rounded=0;fontFamily=Helvetica;fontColor=#FFFFFF;entryX=0;entryY=0.25;entryDx=0;entryDy=0;exitX=1;exitY=0.5;exitDx=0;exitDy=0;" edge="1" parent="1" source="jnAsqeYWJaMCT1S7_PGn-1" target="jnAsqeYWJaMCT1S7_PGn-9">
          <mxGeometry width="50" height="50" relative="1" as="geometry">
            <mxPoint x="290" y="224" as="sourcePoint" />
            <mxPoint x="340" y="174" as="targetPoint" />
          </mxGeometry>
        </mxCell>
      </root>
    </mxGraphModel>
  </diagram>
</mxfile>
